PathFileType  4	(X/Y/Z) D:\Research_projects\MuscleProsody\BulkSports2Dtrack\RetrackedSports2D\p1_sample60_cam1\p1_sample60_cam1_Sports2D\pose-3d
DataRate	CameraRate	NumFrames	NumMarkers	Units	OrigDataRate	OrigDataStartFrame	OrigNumFrames
60.0	60.0	16	22	m	60.0	97	780
Frame#	Time	Hip			RHip			RKnee			RAnkle			RBigToe			RSmallToe			RHeel			LHip			LKnee			LAnkle			LBigToe			LSmallToe			LHeel			Neck			Head			Nose			RShoulder			RElbow			RWrist			LShoulder			LElbow			LWrist			
		X1	Y1	Z1	X2	Y2	Z2	X3	Y3	Z3	X4	Y4	Z4	X5	Y5	Z5	X6	Y6	Z6	X7	Y7	Z7	X8	Y8	Z8	X9	Y9	Z9	X10	Y10	Z10	X11	Y11	Z11	X12	Y12	Z12	X13	Y13	Z13	X14	Y14	Z14	X15	Y15	Z15	X16	Y16	Z16	X17	Y17	Z17	X18	Y18	Z18	X19	Y19	Z19	X20	Y20	Z20	X21	Y21	Z21	X22	Y22	Z22	

98	1.6166667	1.6502156	0.7435139	0.0301000	1.5790230	0.7844988	0.0301000	1.3623918	0.4674416	0.1290000	1.1320293	0.1615456	0.0230000	1.1953305	0.0001799	0.2179000	1.1171241	0.0184480	0.1804000	1.0744599	0.1431914	-0.0119000	1.7375851	0.6990516	0.0301000	1.5108351	0.4051683	0.1290000	1.2663517	0.1703843	0.0230000	1.2893962	0.0097743	0.2179000	1.3240804	0.0300635	0.1804000	1.2132676	0.1582971	-0.0119000	2.0263920	1.2586692	0.0008000	2.2536072	1.4533534	0.0655000	2.1807768	1.3053712	0.1076000	1.8088773	1.2490629	-0.0127500	1.6029302	1.0487972	0.0702000	1.8563062	0.8757090	0.1076000	2.0430242	1.1040795	-0.0127500	1.9015994	0.8700029	0.0702000	1.8631464	0.6425908	0.1076000
99	1.6333333	1.6501471	0.7428940	0.0301000	1.5786227	0.7826081	0.0301000	1.3621464	0.4668586	0.1290000	1.1321825	0.1621046	0.0230000	1.1951416	-0.0001176	0.2179000	1.1166198	0.0185968	0.1804000	1.0736161	0.1433234	-0.0119000	1.7369319	0.6977156	0.0301000	1.5106998	0.4049969	0.1290000	1.2668677	0.1706919	0.0230000	1.2897928	0.0098935	0.2179000	1.3242873	0.0306661	0.1804000	1.2142108	0.1584529	-0.0119000	2.0263674	1.2583515	0.0008000	2.2534617	1.4536589	0.0655000	2.1804336	1.3050407	0.1076000	1.8107032	1.2505983	-0.0127500	1.5997229	1.0562049	0.0702000	1.8554131	0.8757731	0.1076000	2.0432617	1.1040133	-0.0127500	1.9035122	0.8713807	0.0702000	1.8785397	0.6450978	0.1076000
100	1.6500000	1.6499897	0.7422311	0.0301000	1.5780128	0.7806671	0.0301000	1.3616325	0.4662181	0.1290000	1.1322699	0.1628001	0.0230000	1.1949501	-0.0003215	0.2179000	1.1161824	0.0187684	0.1804000	1.0729068	0.1436025	-0.0119000	1.7360113	0.6963905	0.0301000	1.5103237	0.4048222	0.1290000	1.2673027	0.1709255	0.0230000	1.2903489	0.0099379	0.2179000	1.3245603	0.0313233	0.1804000	1.2152014	0.1584768	-0.0119000	2.0263333	1.2580619	0.0008000	2.2534286	1.4538381	0.0655000	2.1801326	1.3045633	0.1076000	1.8126556	1.2523370	-0.0127500	1.5967684	1.0643501	0.0702000	1.8564133	0.8795326	0.1076000	2.0435839	1.1041861	-0.0127500	1.9066176	0.8729500	0.0702000	1.8981569	0.6485240	0.1076000
101	1.6666667	1.6497463	0.7415929	0.0301000	1.5772090	0.7788077	0.0301000	1.3608133	0.4655492	0.1290000	1.1323096	0.1636320	0.0230000	1.1947340	-0.0004625	0.2179000	1.1158180	0.0189377	0.1804000	1.0724342	0.1440289	-0.0119000	1.7348213	0.6951983	0.0301000	1.5097169	0.4046406	0.1290000	1.2676350	0.1710813	0.0230000	1.2910378	0.0098786	0.2179000	1.3248531	0.0319977	0.1804000	1.2161946	0.1583876	-0.0119000	2.0262753	1.2578063	0.0008000	2.2534774	1.4539046	0.0655000	2.1798539	1.3039580	0.1076000	1.8146608	1.2542254	-0.0127500	1.5940318	1.0730392	0.0702000	1.8587767	0.8866187	0.1076000	2.0439821	1.1046399	-0.0127500	1.9111215	0.8746552	0.0702000	1.9221732	0.6530036	0.1076000
102	1.6833333	1.6494371	0.7410698	0.0301000	1.5762447	0.7771797	0.0301000	1.3596770	0.4648928	0.1290000	1.1323277	0.1645920	0.0230000	1.1944939	-0.0005852	0.2179000	1.1155387	0.0190768	0.1804000	1.0723098	0.1445935	-0.0119000	1.7334173	0.6942705	0.0301000	1.5089093	0.4044551	0.1290000	1.2678534	0.1711664	0.0230000	1.2917976	0.0097015	0.2179000	1.3250842	0.0326559	0.1804000	1.2171444	0.1582178	-0.0119000	2.0261937	1.2575962	0.0008000	2.2535863	1.4538740	0.0655000	2.1795809	1.3032604	0.1076000	1.8166277	1.2562161	-0.0127500	1.5914234	1.0820823	0.0702000	1.8618441	0.8966100	0.1076000	2.0444544	1.1054009	-0.0127500	1.9172094	0.8764494	0.0702000	1.9505256	0.6586441	0.1076000
103	1.7000000	1.6490957	0.7407379	0.0301000	1.5751662	0.7759114	0.0301000	1.3582285	0.4642785	0.1290000	1.1323404	0.1656593	0.0230000	1.1942464	-0.0007236	0.2179000	1.1153568	0.0191758	0.1804000	1.0726329	0.1452798	-0.0119000	1.7319026	0.6937031	0.0301000	1.5079360	0.4042665	0.1290000	1.2679492	0.1711871	0.0230000	1.2925614	0.0094119	0.2179000	1.3251751	0.0332696	0.1804000	1.2180015	0.1579858	-0.0119000	2.0261041	1.2574465	0.0008000	2.2537315	1.4537748	0.0655000	2.1792960	1.3025275	0.1076000	1.8184455	1.2582614	-0.0127500	1.5888228	1.0912740	0.0702000	1.8648364	0.9090668	0.1076000	2.0450164	1.1064709	-0.0127500	1.9250340	0.8783107	0.0702000	1.9828814	0.6655232	0.1076000
104	1.7166667	1.6487640	0.7406272	0.0301000	1.5740323	0.7750629	0.0301000	1.3564897	0.4637061	0.1290000	1.1323483	0.1667896	0.0230000	1.1940146	-0.0008937	0.2179000	1.1152827	0.0192323	0.1804000	1.0734556	0.1460596	-0.0119000	1.7304007	0.6935149	0.0301000	1.5068352	0.4040553	0.1290000	1.2679146	0.1711443	0.0230000	1.2932710	0.0090375	0.2179000	1.3250685	0.0338176	0.1804000	1.2187172	0.1576974	-0.0119000	2.0260262	1.2573778	0.0008000	2.2538772	1.4536476	0.0655000	2.1789715	1.3018319	0.1076000	1.8199952	1.2603011	-0.0127500	1.5861033	1.1003737	0.0702000	1.8668884	0.9235487	0.1076000	2.0456983	1.1078185	-0.0127500	1.9347046	0.8802398	0.0702000	2.0186383	0.6736988	0.1076000
105	1.7333333	1.6484779	0.7407177	0.0301000	1.5729057	0.7746132	0.0301000	1.3545115	0.4631518	0.1290000	1.1323406	0.1679093	0.0230000	1.1938216	-0.0010981	0.2179000	1.1153291	0.0192280	0.1804000	1.0747596	0.1468862	-0.0119000	1.7290230	0.6936438	0.0301000	1.5056541	0.4037828	0.1290000	1.2677453	0.1710396	0.0230000	1.2938807	0.0086230	0.2179000	1.3247321	0.0342866	0.1804000	1.2192487	0.1573591	-0.0119000	2.0259754	1.2574178	0.0008000	2.2539659	1.4535374	0.0655000	2.1785655	1.3012517	0.1076000	1.8211563	1.2622536	-0.0127500	1.5831568	1.1090939	0.0702000	1.8670914	0.9396086	0.1076000	2.0465338	1.1093792	-0.0127500	1.9462687	0.8822628	0.0702000	2.0569337	0.6832239	0.1076000
106	1.7500000	1.6482460	0.7409550	0.0301000	1.5718277	0.7744859	0.0301000	1.3523767	0.4625831	0.1290000	1.1323023	0.1689329	0.0230000	1.1936907	-0.0013370	0.2179000	1.1155120	0.0191296	0.1804000	1.0764653	0.1476990	-0.0119000	1.7278472	0.6939761	0.0301000	1.5044464	0.4034084	0.1290000	1.2674419	0.1708820	0.0230000	1.2943696	0.0082127	0.2179000	1.3241648	0.0346737	0.1804000	1.2195609	0.1569773	-0.0119000	2.0259593	1.2575910	0.0008000	2.2539268	1.4534874	0.0655000	2.1780324	1.3008616	0.1076000	1.8218044	1.2640179	-0.0127500	1.5799220	1.1171114	0.0702000	1.8645517	0.9567771	0.1076000	2.0475536	1.1110714	-0.0127500	1.9596900	0.8844670	0.0702000	2.0966865	0.6941642	0.1076000
107	1.7666667	1.6480425	0.7412626	0.0301000	1.5708012	0.7745774	0.0301000	1.3501877	0.4619684	0.1290000	1.1322254	0.1697880	0.0230000	1.1936409	-0.0016137	0.2179000	1.1158414	0.0189101	0.1804000	1.0784640	0.1484404	-0.0119000	1.7269084	0.6943810	0.0301000	1.5032656	0.4029054	0.1290000	1.2670117	0.1706868	0.0230000	1.2947457	0.0078361	0.2179000	1.3234004	0.0349802	0.1804000	1.2196308	0.1565576	-0.0119000	2.0259699	1.2579069	0.0008000	2.2536985	1.4535335	0.0655000	2.1773361	1.3007206	0.1076000	1.8218145	1.2654862	-0.0127500	1.5764064	1.1240963	0.0702000	1.8584733	0.9745527	0.1076000	2.0487844	1.1128063	-0.0127500	1.9748218	0.8870243	0.0702000	2.1366942	0.7065993	0.1076000
108	1.7833333	1.6478346	0.7415480	0.0301000	1.5698133	0.7747730	0.0301000	1.3480598	0.4612896	0.1290000	1.1321223	0.1704230	0.0230000	1.1936718	-0.0019265	0.2179000	1.1163071	0.0185678	0.1804000	1.0806435	0.1490599	-0.0119000	1.7262101	0.6947369	0.0301000	1.5021671	0.4022728	0.1290000	1.2664690	0.1704655	0.0230000	1.2950358	0.0074963	0.2179000	1.3225067	0.0351958	0.1804000	1.2194586	0.1561122	-0.0119000	2.0259809	1.2583618	0.0008000	2.2532420	1.4536978	0.0655000	2.1764486	1.3008607	0.1076000	1.8210813	1.2665654	-0.0127500	1.5726978	1.1297375	0.0702000	1.8482382	0.9923804	0.1076000	2.0502427	1.1144827	-0.0127500	1.9913698	0.8901544	0.0702000	2.1757554	0.7205801	0.1076000
109	1.8000000	1.6476156	0.7417188	0.0301000	1.5688708	0.7749637	0.0301000	1.3461190	0.4605469	0.1290000	1.1320201	0.1707978	0.0230000	1.1937579	-0.0022659	0.2179000	1.1168794	0.0181210	0.1804000	1.0828974	0.1495083	-0.0119000	1.7257459	0.6949490	0.0301000	1.5012098	0.4015347	0.1290000	1.2658349	0.1702137	0.0230000	1.2952721	0.0071646	0.2179000	1.3215719	0.0352938	0.1804000	1.2190751	0.1556588	-0.0119000	2.0259562	1.2589428	0.0008000	2.2525399	1.4539862	0.0655000	2.1753478	1.3012850	0.1076000	1.8195421	1.2671905	-0.0127500	1.5689735	1.1337654	0.0702000	1.8334626	1.0096310	0.1076000	2.0519318	1.1159937	-0.0127500	2.0088829	0.8940565	0.0702000	2.2127986	0.7360639	0.1076000
110	1.8166667	1.6474109	0.7417042	0.0301000	1.5680094	0.7750630	0.0301000	1.3444885	0.4597492	0.1290000	1.1319441	0.1708744	0.0230000	1.1938621	-0.0026248	0.2179000	1.1175227	0.0175894	0.1804000	1.0851265	0.1497423	-0.0119000	1.7255147	0.6949629	0.0301000	1.5004475	0.4007268	0.1290000	1.2651367	0.1699114	0.0230000	1.2954756	0.0067946	0.2179000	1.3206830	0.0352462	0.1804000	1.2185287	0.1552103	-0.0119000	2.0258581	1.2596249	0.0008000	2.2515878	1.4543965	0.0655000	2.1740239	1.3019723	0.1076000	1.8171869	1.2673246	-0.0127500	1.5655009	1.1359850	0.0702000	1.8140382	1.0256198	0.1076000	2.0538452	1.1172593	-0.0127500	2.0268189	0.8988513	0.0702000	2.2469966	0.7528924	0.1076000
111	1.8333333	1.6472632	0.7414628	0.0301000	1.5672785	0.7750095	0.0301000	1.3432654	0.4589052	0.1290000	1.1319140	0.1706205	0.0230000	1.1939524	-0.0030032	0.2179000	1.1181956	0.0169886	0.1804000	1.0872426	0.1497354	-0.0119000	1.7255225	0.6947659	0.0301000	1.4999199	0.3998863	0.1290000	1.2644110	0.1695390	0.0230000	1.2956417	0.0063462	0.2179000	1.3199060	0.0350415	0.1804000	1.2178669	0.1547655	-0.0119000	2.0256443	1.2603772	0.0008000	2.2503917	1.4549262	0.0655000	2.1724851	1.3028813	0.1076000	1.8140572	1.2669533	-0.0127500	1.5626154	1.1363115	0.0702000	1.7901573	1.0396651	0.1076000	2.0559586	1.1182568	-0.0127500	2.0446372	0.9045513	0.0702000	2.2778074	0.7708187	0.1076000
112	1.8500000	1.6472146	0.7409791	0.0301000	1.5667271	0.7747627	0.0301000	1.3425050	0.4580250	0.1290000	1.1319480	0.1700287	0.0230000	1.1940142	-0.0034001	0.2179000	1.1188466	0.0163371	0.1804000	1.0891716	0.1494857	-0.0119000	1.7257727	0.6943779	0.0301000	1.4996499	0.3990543	0.1290000	1.2637019	0.1690930	0.0230000	1.2957409	0.0057971	0.2179000	1.3192766	0.0346889	0.1804000	1.2171403	0.1543122	-0.0119000	2.0252666	1.2611753	0.0008000	2.2489712	1.4555727	0.0655000	2.1707558	1.3039524	0.1076000	1.8102497	1.2660816	-0.0127500	1.5606807	1.1347954	0.0702000	1.7623259	1.0511527	0.1076000	2.0582145	1.1190265	-0.0127500	2.0618429	0.9110572	0.0702000	2.3049296	0.7895151	0.1076000
113	1.8666667	1.6472934	0.7402606	0.0301000	1.5663987	0.7743013	0.0301000	1.3422209	0.4571267	0.1290000	1.1320567	0.1691297	0.0230000	1.1940549	-0.0038062	0.2179000	1.1194276	0.0156623	0.1804000	1.0908554	0.1490134	-0.0119000	1.7262571	0.6938363	0.0301000	1.4996426	0.3982792	0.1290000	1.2630517	0.1685899	0.0230000	1.2957375	0.0051413	0.2179000	1.3188075	0.0342122	0.1804000	1.2164125	0.1538384	-0.0119000	2.0246820	1.2620018	0.0008000	2.2473683	1.4563277	0.0655000	2.1688790	1.3051118	0.1076000	1.8059182	1.2647328	-0.0127500	1.5600367	1.1316259	0.0702000	1.7313466	1.0595877	0.1076000	2.0605182	1.1196527	-0.0127500	2.0779949	0.9181665	0.0702000	2.3282491	0.8085414	0.1076000
